<?xml version="1.0" encoding="UTF-8" standalone="no"?>
<svg
   xmlns:dc="http://purl.org/dc/elements/1.1/"
   xmlns:cc="http://creativecommons.org/ns#"
   xmlns:rdf="http://www.w3.org/1999/02/22-rdf-syntax-ns#"
   xmlns:svg="http://www.w3.org/2000/svg"
   xmlns="http://www.w3.org/2000/svg"
   width="600"
   height="200"
   viewBox="0 0 158.75 52.916667"
   version="1.1"
   id="svg8">
  <defs
     id="defs2">
    <rect
       x="179.68341"
       y="4.1197495"
       width="58.532021"
       height="19.777945"
       id="rect865" />
    <rect
       x="57.830357"
       y="-59.720238"
       width="118.87351"
       height="38.74256"
       id="rect891" />
    <rect
       id="rect865-8"
       height="19.777945"
       width="58.532021"
       y="4.1197495"
       x="179.68341" />
    <rect
       id="rect878"
       height="19.777945"
       width="58.532021"
       y="4.1197495"
       x="179.68341" />
  </defs>
  <metadata
     id="metadata5">
    <rdf:RDF>
      <cc:Work
         rdf:about="">
        <dc:format>image/svg+xml</dc:format>
        <dc:type
           rdf:resource="http://purl.org/dc/dcmitype/StillImage" />
        <dc:title></dc:title>
      </cc:Work>
    </rdf:RDF>
  </metadata>
  <g
     id="layer1">
    <g
       id="g859"
       transform="translate(0.18898812,-0.37797609)">
      <path
         style="fill:#d45500;stroke-width:0.301371"
         d="m 35.590193,49.578068 c -2.738045,0 -3.075476,-0.0629 -3.702817,-0.690243 -0.614954,-0.614953 -0.711208,-1.081497 -0.882479,-4.277356 -0.105731,-1.972917 -0.128593,-3.650765 -0.0508,-3.728555 0.07779,-0.07779 0.770698,-0.117631 1.539799,-0.08854 0.769101,0.02908 1.990349,0.314755 2.713885,0.634808 0.723536,0.320056 2.052802,1.279208 2.953924,2.131453 0.901122,0.852244 2.136452,2.272675 2.745177,3.156518 0.608724,0.88384 1.022862,1.742748 0.920308,1.908686 -0.102553,0.165938 -0.870001,0.448296 -1.70544,0.627467 -0.835437,0.179168 -2.874636,0.325761 -4.531553,0.325761 z m -7.715741,-1.779051 c -0.184588,0.184587 -1.198829,-0.166197 -2.805125,-0.970171 -1.517898,-0.759732 -3.16421,-1.88714 -4.150002,-2.841956 -1.360677,-1.31792 -1.598701,-1.701023 -1.422956,-2.290279 0.116077,-0.389191 1.034629,-1.962077 2.041229,-3.495302 1.006599,-1.533225 1.999515,-2.787683 2.206481,-2.787683 0.206965,0 0.789181,0.347415 1.293812,0.772035 0.504632,0.42462 1.352973,1.656585 1.885204,2.737697 0.867668,1.762484 0.981791,2.307843 1.104088,5.276098 0.07868,1.909623 0.01405,3.432776 -0.152731,3.599561 z m 17.880091,-0.634745 c -0.309569,0.0015 -1.055462,-0.512602 -1.657541,-1.14257 -0.602076,-0.629971 -1.753666,-1.988314 -2.55909,-3.018545 -1.150662,-1.471836 -1.390755,-1.961884 -1.120651,-2.28734 0.189062,-0.227807 1.051469,-0.726262 1.916461,-1.107678 1.215448,-0.535952 2.08616,-0.687005 3.832991,-0.664966 1.546555,0.01953 3.041584,0.278588 4.734563,0.820453 1.360854,0.435562 2.563559,0.936387 2.672677,1.112945 0.10912,0.176558 -0.739942,1.239121 -1.8868,2.361249 -1.146862,1.122131 -2.824227,2.463998 -3.727478,2.981928 -0.903251,0.517933 -1.895561,0.942966 -2.205132,0.944524 z M 17.27728,39.15469 c -0.144654,0.0894 -0.462192,-0.07158 -0.70564,-0.357745 -0.243448,-0.286161 -0.726046,-0.994953 -1.072439,-1.575092 -0.346393,-0.580139 -0.979034,-2.095837 -1.40587,-3.36822 -0.426835,-1.27238 -0.776064,-2.704341 -0.776064,-3.182137 0,-0.477795 0.171102,-1.102715 0.380227,-1.38871 0.209125,-0.285995 1.667007,-1.002212 3.239738,-1.591593 1.572732,-0.589381 3.127605,-1.093294 3.455274,-1.119808 0.442533,-0.03581 0.702997,0.261843 1.012695,1.157278 0.334364,0.966752 0.350191,1.612232 0.07992,3.259356 -0.185358,1.129629 -0.558682,2.485799 -0.829608,3.013711 -0.270927,0.527912 -1.082686,1.86672 -1.80391,2.975126 -0.721223,1.108407 -1.429668,2.088433 -1.574321,2.177834 z m 38.283751,-1.694712 c -0.547142,0.190717 -1.288226,0.151141 -2.312098,-0.123471 -0.82877,-0.222283 -2.354461,-0.626738 -3.390425,-0.898786 -1.436168,-0.377141 -1.883569,-0.624434 -1.883569,-1.041113 0,-0.300567 0.131865,-0.893315 0.293032,-1.317221 0.161168,-0.423902 0.865357,-1.391632 1.564864,-2.150506 0.699506,-0.758876 1.822098,-1.695214 2.49465,-2.080752 0.672552,-0.385538 2.291161,-1.063855 3.596909,-1.507373 1.695465,-0.57589 2.466846,-0.713643 2.698576,-0.481912 0.23173,0.231731 0.168264,1.077889 -0.222026,2.960177 -0.300582,1.449632 -0.881348,3.473725 -1.290592,4.497983 -0.564459,1.412731 -0.938466,1.930047 -1.549321,2.142974 z M 51.045663,26.975236 c -0.171401,0 -0.475379,-0.496136 -0.675505,-1.102525 -0.222059,-0.672844 -0.294864,-1.841457 -0.186814,-2.998561 0.108048,-1.157051 0.490816,-2.518607 0.982078,-3.493385 0.442766,-0.878541 1.35347,-2.382572 2.023791,-3.342291 0.740373,-1.06001 1.402126,-1.709632 1.685888,-1.654984 0.256919,0.04948 0.773647,0.631277 1.14829,1.292887 0.374644,0.66161 1.013044,2.220054 1.418665,3.46321 0.405625,1.243156 0.822017,2.685035 0.925318,3.204177 0.145626,0.731836 0.03186,1.11746 -0.506397,1.716466 -0.419683,0.467052 -1.842923,1.196197 -3.598946,1.84379 -1.597598,0.589169 -3.044966,1.071216 -3.216368,1.071216 z M 14.892381,25.79811 c -1.419758,0.488469 -1.6231,0.498631 -1.780302,0.08897 -0.09761,-0.254367 -0.09557,-1.246036 0.0045,-2.203709 0.100097,-0.957674 0.533863,-2.855085 0.963924,-4.21647 0.430061,-1.361384 1.044538,-2.737854 1.365505,-3.058821 0.354111,-0.35411 0.996912,-0.583576 1.63477,-0.583576 0.578158,0 2.341179,0.413219 3.917825,0.918263 1.931068,0.618577 2.866629,1.065098 2.866629,1.368176 0,0.247452 -0.258397,0.956412 -0.574215,1.575467 -0.315818,0.619055 -1.247129,1.754987 -2.069579,2.524293 -0.822449,0.769307 -2.222312,1.767112 -3.110806,2.217346 -0.888493,0.450234 -2.336715,1.066761 -3.218271,1.370061 z M 48.671809,17.548945 C 48.20271,18.124077 48.035186,18.16661 47.484832,17.850316 47.132396,17.647767 46.4855,17.05239 46.047286,16.527255 45.609068,16.00212 44.957332,14.917184 44.598978,14.116287 44.107203,13.017199 43.90545,11.821426 43.776244,9.2400492 c -0.09415,-1.8810324 -0.07554,-3.5744384 0.04137,-3.7631238 0.147557,-0.2381555 0.792669,-0.056214 2.109597,0.5949677 1.043374,0.5159175 2.757039,1.5859503 3.808143,2.3778505 1.051104,0.7919001 2.051539,1.7480524 2.223187,2.1247834 0.171652,0.37673 0.232252,1.000103 0.134668,1.385273 -0.09758,0.38517 -0.784424,1.649628 -1.526318,2.809906 -0.741894,1.160279 -1.594681,2.410936 -1.895082,2.779239 z M 25.352338,14.604698 c -0.569265,-0.0079 -2.317237,-0.353347 -3.884381,-0.767709 -1.567145,-0.414363 -3.023899,-0.898245 -3.237231,-1.075295 -0.307954,-0.255579 -0.228538,-0.516555 0.385414,-1.266546 0.42531,-0.51955 1.543021,-1.5934802 2.483803,-2.3865105 0.940781,-0.7930306 2.411069,-1.7865751 3.267305,-2.2078768 1.37843,-0.6782417 1.643588,-0.7202149 2.314369,-0.3663528 0.416667,0.2198074 1.479131,1.3320383 2.361031,2.4716239 0.8819,1.1395852 1.801109,2.3436912 2.042686,2.6757912 0.401747,0.552287 0.365583,0.662542 -0.423752,1.291936 -0.474641,0.378465 -1.63051,0.903475 -2.5686,1.16669 -0.938089,0.263214 -2.171379,0.472126 -2.740644,0.464249 z M 39.285407,12.509185 C 38.355485,12.509028 37.266395,12.214833 36.070782,11.640822 35.076258,11.163353 33.773107,10.248045 33.174893,9.6068049 32.576679,8.9655646 31.513912,7.6671534 30.813189,6.7214467 30.112466,5.7757402 29.619172,4.8724976 29.71698,4.714241 c 0.09781,-0.1582566 1.134601,-0.4491191 2.303984,-0.6463611 1.169384,-0.1972423 3.267251,-0.311127 4.661927,-0.2530776 2.153104,0.089617 2.639087,0.2088743 3.220375,0.7902604 0.605455,0.605557 0.702222,1.0677117 0.837026,3.9976002 0.08384,1.8220861 0.107222,3.4465071 0.05197,3.6098221 -0.05525,0.163316 -0.733337,0.296831 -1.506855,0.2967 z"
         id="path863" />
      <path
         id="path861"
         style="fill:#e6e6e6;stroke-width:0.301371"
         d="m 35.951443,14.622068 c -6.808556,-6.8e-5 -12.327999,5.519374 -12.32793,12.32793 -6.8e-5,6.808554 5.519374,12.327998 12.32793,12.327929 C 42.76,39.277996 48.279441,33.758552 48.279372,26.949998 48.279441,20.141442 42.76,14.622 35.951443,14.622068 Z m -0.162264,1.983858 c 0.580744,-0.0054 1.162693,0.03752 1.729094,0.129708 0.953416,0.155173 2.445761,0.630725 3.316592,1.056783 0.870834,0.426059 2.192967,1.452557 2.937806,2.280997 0.744839,0.828439 1.632585,2.250683 1.973006,3.160531 0.405498,1.083794 0.619083,2.374084 0.619083,3.741374 0,1.372801 -0.213778,2.657721 -0.62425,3.75481 -0.367472,0.982157 -1.229564,2.330241 -2.097029,3.279386 -0.981068,1.073441 -2.075659,1.882569 -3.277836,2.422073 -1.095806,0.49177 -2.551734,0.864838 -3.704685,0.949298 -1.088781,0.07977 -2.486614,-0.02752 -3.276286,-0.251148 -0.757605,-0.21454 -1.98977,-0.748622 -2.737817,-1.187008 -0.748047,-0.438383 -1.851511,-1.340845 -2.452047,-2.005563 -0.600534,-0.66472 -1.393272,-1.791282 -1.761649,-2.503207 -0.490024,-0.947015 -0.7034,-1.98193 -0.795301,-3.856095 -0.10286,-2.097662 -0.0081,-2.87277 0.522449,-4.279841 0.356318,-0.945069 1.237338,-2.373944 1.95802,-3.175517 0.720682,-0.801572 1.967773,-1.813709 2.771407,-2.248958 0.803633,-0.435249 2.233824,-0.933027 3.178101,-1.105876 0.56097,-0.102685 1.140597,-0.156338 1.721342,-0.161747 z m 0.178284,0.875915 c -1.791293,0 -2.436684,0.155035 -4.139283,0.993222 -1.153543,0.567886 -2.408109,1.467439 -2.930053,2.100646 -0.501995,0.609007 -1.185061,1.685916 -1.517737,2.393653 -0.332676,0.707738 -0.604614,1.627611 -0.604614,2.043803 0,0.612269 0.157801,0.766065 0.828373,0.807185 0.455824,0.02795 1.59664,0.273258 2.48667,0.07545 1.882443,-0.418374 1.681123,-0.220083 1.657263,0.476457 -0.02837,0.828065 0.136857,0.961219 -1.641296,0.368453 -0.96206,-0.320714 -2.416833,0.05898 -2.874707,0.23306 -0.773033,0.293907 -0.81886,0.403744 -0.637171,1.539957 0.107615,0.672992 0.523953,1.871446 0.925008,2.662888 0.401054,0.791443 1.081487,1.857666 1.512053,2.369365 0.430566,0.511694 1.261997,1.226196 1.847432,1.588016 0.585436,0.361821 1.630696,0.843674 2.322856,1.070735 0.770614,0.252796 2.031074,0.362664 3.251997,0.283704 1.096627,-0.07092 2.510398,-0.344577 3.141411,-0.608232 0.631013,-0.263652 1.708986,-0.940022 2.39572,-1.502751 0.686734,-0.562726 1.674932,-1.822196 2.19573,-2.79931 0.520798,-0.977117 1.037304,-2.34178 1.147733,-3.032374 0.187534,-1.172776 0.145566,-1.276366 -0.632002,-1.571998 -0.457872,-0.174081 -1.786959,-0.514443 -2.906379,-0.231034 -1.807136,0.457523 -1.591461,0.258598 -1.609625,-0.370479 -0.01836,-0.636051 -0.222295,-0.77975 1.657266,-0.476457 0.967253,0.156079 2.101199,0.02337 2.557023,-0.0046 0.670573,-0.04112 0.758018,-0.265788 0.758018,-0.878057 0,-0.416192 -0.271936,-1.336065 -0.604613,-2.043802 -0.332676,-0.707738 -1.015743,-1.784646 -1.517737,-2.393653 -0.521946,-0.633208 -1.77651,-1.53276 -2.930054,-2.100647 -1.702599,-0.838187 -2.347989,-0.993221 -4.139282,-0.993221 z m -0.0067,1.471228 c 8.73e-4,0 0.0017,0 0.0026,0 0.705813,-4.1e-5 1.277999,0.572144 1.277956,1.277959 4.3e-5,0.705814 -0.572143,1.277999 -1.277956,1.277958 -0.705814,4.1e-5 -1.278,-0.572144 -1.277958,-1.277958 -4.4e-5,-0.704807 0.570569,-1.276575 1.275374,-1.277959 z m 0.142613,8.604642 c 0.237482,0.0043 0.854329,-0.02915 1.243865,0.382038 0.638117,0.673586 2.147654,1.102886 2.761588,1.145002 0.860904,0.05906 1.716741,0.381426 2.013905,-0.635325 0.168601,-0.576868 0.369435,-0.871561 0.924933,-0.871561 0.457904,0 1.655197,-0.604097 1.335985,1.850091 -0.111625,0.858208 -0.579935,1.512432 -0.711605,1.709409 -0.418618,0.626242 -0.866164,0.628888 -1.347332,0.09404 -0.620514,-0.572855 -0.679956,-0.573421 -3.49436,-0.02687 -2.782928,0.540435 -2.942821,0.540631 -5.725749,0 -2.805011,-0.544931 -3.086223,-0.709113 -3.485575,0.01807 -0.191852,0.349345 -0.761599,0.899474 -1.392989,0.05984 -0.146783,-0.195194 -0.382648,-0.638233 -0.519556,-1.460272 -0.474389,-2.848404 0.689355,-2.24431 1.105876,-2.24431 0.43071,0 0.840683,0.174239 0.995805,0.769094 0.26835,1.029065 1.384811,0.798298 2.707328,0.641675 0.816304,-0.09668 1.341378,-0.419534 2.264682,-1.128392 0.421117,-0.323308 0.872613,-0.310671 1.110095,-0.30638 z" />
      <text
         xml:space="preserve"
         id="text889"
         style="font-style:normal;font-variant:normal;font-weight:bold;font-stretch:normal;font-size:10.5833px;line-height:1.25;font-family:'Yu Gothic UI';-inkscape-font-specification:'Yu Gothic UI Bold';white-space:pre;shape-inside:url(#rect891);fill:#e6e6e6;fill-opacity:1;stroke:none;"
         transform="translate(4.1580173,69.888267)"><tspan
           x="57.830078"
           y="-40.670741"><tspan
             style="font-style:normal;font-variant:normal;font-weight:normal;font-stretch:normal;font-size:16.9333px;font-family:Timeline;-inkscape-font-specification:Timeline;letter-spacing:0.529167px;word-spacing:0px;fill:#e6e6e6">GADGET</tspan></tspan></text>
      <text
         id="text842"
         y="39.305595"
         x="66.907227"
         style="font-style:normal;font-weight:normal;font-size:10.5833px;line-height:1.25;font-family:sans-serif;fill:#e6e6e6;fill-opacity:1;stroke:none;stroke-width:0.264583;"
         xml:space="preserve"><tspan
           id="tspan844"
           style="font-style:normal;font-variant:normal;font-weight:normal;font-stretch:normal;font-size:8.46667px;font-family:Kimberley;-inkscape-font-specification:Kimberley;fill:#e6e6e6;stroke-width:0.264583;"
           y="39.305595"
           x="66.907227">INSPECCIÓN AÉREA</tspan></text>
    </g>
  </g>
</svg>
